<svg width="10" height="11" viewBox="0 0 10 11" fill="none" xmlns="http://www.w3.org/2000/svg">
<circle cx="5" cy="6" r="4.5" stroke="#485C72"/>
<path d="M5.28516 8.08594C6.40234 8.08594 7.125 7.39062 7.17969 6.47656V6.45312H6.11719L6.11328 6.48828C6.03516 6.91016 5.75 7.19141 5.29297 7.19141C4.73047 7.19141 4.37891 6.72656 4.37891 5.90625V5.90234C4.37891 5.10156 4.73047 4.62109 5.28906 4.62109C5.76172 4.62109 6.03906 4.92578 6.10938 5.32422L6.11719 5.35938H7.17578V5.33203C7.13281 4.42578 6.41016 3.72656 5.27344 3.72656C4.01953 3.72656 3.21875 4.55859 3.21875 5.89844V5.90234C3.21875 7.25391 4.00781 8.08594 5.28516 8.08594Z" fill="#485C72"/>
</svg>
