<svg width="187" height="159" viewBox="0 0 187 159" fill="none" xmlns="http://www.w3.org/2000/svg">
<g clip-path="url(#clip0_2584_116298)">
<path d="M180.94 122.88C178.324 113.511 186.643 113.149 186.824 101.074C186.9 96.1351 184.19 91.1056 177.668 88.7999C174.463 87.6659 171.27 86.886 168.417 85.0852C161.917 80.9786 162.034 73.1611 160.264 66.4965C156.369 51.8599 141.389 40.2335 126.223 40.6102C115.289 40.8815 105.404 41.2168 95.436 50.481C88.6158 56.8179 84.1847 64.6165 77.8513 71.1531C71.1443 78.0739 62.9766 81.3931 53.8012 83.6159C45.124 85.7181 35.6843 88.2197 29.0415 94.5264C22.7987 100.453 23.7083 106.65 26.3844 113.925C29.3359 121.946 22.9346 127.405 16.2653 130.528C10.6491 133.158 3.16835 132.928 0.560275 139.224C-2.26671 146.047 6.13121 146.163 13.9441 146.163C21.757 146.163 122.891 145.564 151.157 146.397C158.766 146.623 183.039 148.691 186.473 139.224C188.81 132.781 182.771 129.428 180.944 122.884L180.94 122.88Z" fill="#EDF3F8"/>
<path d="M95.5483 59.9526H96.0466" stroke="#5C77B9" stroke-width="0.622585" stroke-miterlimit="10"/>
<path d="M97.0356 59.9526H151.292C156.444 59.9526 160.622 63.5543 160.622 67.9999C160.622 72.4456 156.444 76.0473 151.292 76.0473H140.505" stroke="#5C77B9" stroke-width="0.622585" stroke-miterlimit="10" stroke-dasharray="1.25 1.25"/>
<path d="M140.01 76.0476H139.512" stroke="#5C77B9" stroke-width="0.622585" stroke-miterlimit="10"/>
<path d="M134.541 75.5046H31.43C26.5762 75.5046 22.6433 79.4303 22.6433 84.2753C22.6433 89.1203 26.5762 93.046 31.43 93.046H83.8179" stroke="#5C77B9" stroke-width="0.622585" stroke-miterlimit="10" stroke-dasharray="1.25 1.25"/>
<path d="M76.749 53.1449C75.2204 57.485 70.6799 62.3413 65.4977 62.3413C59.6135 62.3413 58.1755 57.5792 56.4582 56.0722C52.2384 52.3688 49.5964 51.5061 44.2255 50.5906C40.7305 49.9953 36.9939 45.0976 37.8997 40.2376C39.5529 31.3765 55.5636 27.1494 59.6173 20.6656C62.9198 15.3836 62.7462 12.2265 68.5247 8.43262" stroke="#5C77B9" stroke-width="0.622585" stroke-miterlimit="10" stroke-dasharray="1.25 1.25"/>
<path d="M71.4302 3.82309C71.4529 3.77411 68.8674 5.37152 68.8674 5.37152L69.5393 9.71541L70.8074 6.46408L74.1477 5.82738L78.9034 1.3667L71.4302 3.82309Z" fill="#1755A0"/>
<path d="M78.903 1.3667L69.5388 9.71917L70.807 6.46785L78.903 1.3667Z" fill="#214988"/>
<path d="M78.904 1.3667L66.5166 3.99262L68.868 5.37528L78.904 1.3667L70.808 6.46785L74.8088 8.93554L78.904 1.3667Z" fill="#0470B6"/>
<path d="M141.646 154.43C141.646 155.507 120.675 156.381 94.8059 156.381C68.9366 156.381 47.9663 155.507 47.9663 154.43C47.9663 153.352 68.9366 152.478 94.8059 152.478C120.675 152.478 141.646 153.352 141.646 154.43Z" fill="#E9E8EE"/>
<path d="M53.8833 154.407C52.0188 154.407 50.509 152.9 50.509 151.039V32.7365C50.509 30.8754 52.0188 29.3684 53.8833 29.3684H135.73C137.595 29.3684 139.104 30.8754 139.104 32.7365V151.039C139.104 152.9 137.595 154.407 135.73 154.407" fill="#5A5F84"/>
<path d="M133.97 34.2698H55.6411V149.502H133.97V34.2698Z" fill="#F5FBFE"/>
<path d="M130.96 37.7927H58.6545V145.983H130.96V37.7927Z" fill="white"/>
<path d="M73.1294 61.9421C78.2614 61.9421 82.4218 57.7893 82.4218 52.6666C82.4218 47.5439 78.2614 43.3911 73.1294 43.3911C67.9973 43.3911 63.8369 47.5439 63.8369 52.6666C63.8369 57.7893 67.9973 61.9421 73.1294 61.9421Z" fill="#AED5F1"/>
<mask id="mask0_2584_116298" style="mask-type:alpha" maskUnits="userSpaceOnUse" x="63" y="43" width="20" height="19">
<path d="M73.1294 61.9421C78.2614 61.9421 82.4218 57.7893 82.4218 52.6666C82.4218 47.5439 78.2614 43.3911 73.1294 43.3911C67.9973 43.3911 63.8369 47.5439 63.8369 52.6666C63.8369 57.7893 67.9973 61.9421 73.1294 61.9421Z" fill="#AED5F1"/>
</mask>
<g mask="url(#mask0_2584_116298)">
<path d="M73.157 55.4653C73.0211 55.4653 72.0662 55.5143 71.6963 55.7931V56.735H73.1494L74.6063 56.7463V55.8044C74.244 55.5218 73.2891 55.4653 73.1532 55.4653H73.157Z" fill="#E5E4E1"/>
<path d="M68.466 57.6236C67.3374 58.0644 66.4958 59.0251 66.2051 60.1967L65.7107 62.186L72.3007 62.2086L71.1873 56.5574L68.466 57.6236Z" fill="#435478"/>
<path d="M74.7169 56.4106L74.5923 56.5876C74.2639 57.0548 73.7242 57.3336 73.1505 57.3298C72.5768 57.3298 72.0409 57.0473 71.7163 56.5763L71.5917 56.3955L71.1841 56.5537L72.2975 62.2049H73.1316L73.9658 62.2125L75.1207 56.5688L74.7169 56.4068V56.4106Z" fill="#E5E4E1"/>
<path d="M80.0799 60.2498C79.7968 59.0743 78.9627 58.1099 77.8379 57.6578L75.1242 56.5728L73.9692 62.2164L80.5592 62.239L80.0799 60.246V60.2498Z" fill="#435478"/>
<path d="M74.3372 55.2917C74.0315 55.7099 73.6276 55.9397 73.2162 55.9397H73.0992C72.684 55.9397 72.284 55.7024 71.982 55.2842L71.9028 55.1711V56.2788L71.5933 56.3993L71.7178 56.5802C72.0424 57.0511 72.5821 57.3337 73.1521 57.3337C73.7258 57.3337 74.2655 57.0586 74.5939 56.5915L74.7184 56.4144L74.4165 56.2938V55.1862L74.3372 55.2992V55.2917Z" fill="#FBC09D"/>
<path d="M73.096 55.9398H73.213C73.6282 55.9398 74.0283 55.71 74.334 55.2918L74.417 55.1788V53.7094H73.164L71.9033 53.7019V55.1712L71.9788 55.2842C72.2845 55.7062 72.6808 55.9398 73.096 55.9398Z" fill="#3E2F47"/>
<path d="M71.1834 56.5576L70.0624 58.2756C69.8926 58.5393 69.9945 58.8897 70.2776 59.0215L70.7116 59.2212L70.0284 60.1179C69.885 60.31 69.8888 60.5737 70.0435 60.7583L71.2627 62.2088H72.2931L71.1796 56.5614L71.1834 56.5576Z" fill="#9CA8B5"/>
<path d="M73.1493 57.33C73.1493 57.33 71.9264 56.5991 71.6962 55.7891L71.1829 56.5539C71.4697 58.1098 72.4058 58.7804 72.4058 58.7804L73.1493 57.33Z" fill="white"/>
<path d="M73.1496 57.3298L72.6438 58.3169L72.8816 58.6974H73.1458L73.41 58.7012L73.6478 58.3207L73.1496 57.3298Z" fill="#BD4164"/>
<path d="M73.4094 58.7013L73.1452 58.6975H72.8809L72.4016 62.2088L73.1301 62.2126L73.8623 62.2163L73.4094 58.7013Z" fill="#E86365"/>
<path d="M75.123 56.5728L76.2326 58.2983C76.4025 58.562 76.2968 58.9124 76.0099 59.0442L75.5759 59.2401L76.2515 60.1405C76.3949 60.3327 76.3874 60.5964 76.2289 60.781L74.9984 62.2202H73.968L75.123 56.5728Z" fill="#9CA8B5"/>
<path d="M73.1497 57.3299C73.1497 57.3299 74.3801 56.6065 74.6141 55.8003L75.1236 56.5689C74.8255 58.1211 73.8857 58.7841 73.8857 58.7841L73.1534 57.3299H73.1497Z" fill="white"/>
<path d="M71.0094 53.0425C71.0094 53.57 70.5754 53.9995 70.047 53.9957C69.5186 53.9957 69.0883 53.5624 69.0921 53.035C69.0958 52.5075 69.5261 52.078 70.0545 52.0818C70.5829 52.0818 71.0132 52.5151 71.0094 53.0425Z" fill="#FBC09D"/>
<path d="M70.5566 53.0427C70.5566 53.3215 70.3302 53.5476 70.0509 53.5438C69.7716 53.5438 69.5451 53.3178 69.5489 53.039C69.5489 52.7602 69.7753 52.5341 70.0546 52.5379C70.3339 52.5379 70.5604 52.7639 70.5566 53.0427Z" fill="#F8A589"/>
<path d="M75.3223 53.0616C75.3223 53.589 75.7488 54.0185 76.2772 54.0223C76.8056 54.0223 77.2359 53.5965 77.2396 53.0691C77.2396 52.5417 76.8131 52.1122 76.2847 52.1084C75.7563 52.1084 75.326 52.5341 75.3223 53.0616Z" fill="#FBC09D"/>
<path d="M75.7754 53.0616C75.7754 53.3404 75.9981 53.5665 76.2774 53.5665C76.5567 53.5665 76.7831 53.3442 76.7831 53.0654C76.7831 52.7866 76.5605 52.5605 76.2812 52.5605C76.0019 52.5605 75.7754 52.7828 75.7754 53.0616Z" fill="#F8A589"/>
<path d="M73.1864 47.5799C71.4313 47.5723 70.0046 48.9889 69.9971 50.7408V50.899C69.9971 51.1439 70.0235 51.385 70.0763 51.6224L70.5293 53.5927C70.6651 54.1767 71.0199 54.6815 71.5257 55.0018L71.8767 55.2241C72.2579 55.4689 72.7033 55.597 73.1562 55.6008C73.6091 55.6008 74.0545 55.4765 74.4395 55.2354L74.7905 55.0168C75.2963 54.7004 75.6586 54.1955 75.7982 53.6153L76.2663 51.645C76.3229 51.4076 76.3531 51.1665 76.3531 50.9216V50.7634C76.3606 49.0115 74.9415 47.5874 73.1902 47.5799H73.1864Z" fill="#FBC09D"/>
<path d="M73.6593 52.9258H72.678C72.7572 52.9898 72.8365 53.0501 72.9233 53.1029C73.0139 53.1556 73.1158 53.1895 73.2215 53.1782C73.38 53.1631 73.5385 53.035 73.6593 52.9258Z" fill="#F8A589"/>
<path d="M74.2735 53.5398C73.5866 53.8864 72.726 53.8714 72.0542 53.4946C72.3109 53.8073 72.7411 54.0371 73.145 54.056C73.5488 54.0748 73.9904 53.8299 74.2735 53.5398Z" fill="white"/>
<path d="M73.639 54.2295H72.6841C72.8162 54.335 72.9823 54.4066 73.1559 54.4103C73.3295 54.4141 73.4993 54.3312 73.639 54.2295Z" fill="#F8A589"/>
<path d="M76.7905 51.4566C77.1754 50.4733 77.0245 48.7327 76.4621 47.8398C75.8997 46.9469 74.8957 46.3441 73.8427 46.2612C72.7859 46.1821 71.7215 46.6417 71.0308 47.4405C70.4118 47.4631 69.8494 47.8926 69.5588 48.4388C69.2682 48.9851 69.2229 49.6369 69.3097 50.251C69.3965 50.8651 69.6116 51.5282 69.8268 52.1121L70.5326 53.5965L70.1325 51.8371C70.7477 51.3096 71.0874 50.2849 71.0648 49.4787C71.2497 49.652 71.4158 49.8592 71.5441 50.0777C71.6913 49.7951 71.6649 49.3619 71.4309 49.1433C71.7404 49.5465 72.2197 49.7989 72.7142 49.9194C73.2086 50.04 73.7257 50.0438 74.2314 50.0249C73.7936 49.8215 73.3558 49.6407 72.9067 49.4674C73.8314 49.5879 74.7523 49.7235 75.6544 49.9458C75.5487 50.5938 75.8242 51.3322 76.2168 51.8597L75.7978 53.6153L76.7942 51.4603L76.7905 51.4566Z" fill="#9F5A62"/>
<path d="M71.8392 50.7408C71.4731 50.737 71.1447 50.9066 70.9333 51.174L72.7337 51.2004C72.5299 50.9254 72.2091 50.7446 71.8392 50.7408Z" fill="#9F5A62"/>
<path d="M72.1069 51.8256C72.1069 51.9801 71.9748 52.1044 71.8201 52.1044C71.6653 52.1044 71.5408 51.9726 71.5408 51.8181C71.5408 51.6636 71.6729 51.5393 71.8276 51.5393C71.9824 51.5393 72.1069 51.6712 72.1069 51.8256Z" fill="#47284F"/>
<path d="M74.4925 50.7784C74.1264 50.7746 73.798 50.9442 73.5867 51.2116L75.387 51.238C75.1832 50.963 74.8624 50.7821 74.4925 50.7784Z" fill="#9F5A62"/>
<path d="M74.7602 51.8637C74.7602 52.0182 74.6281 52.1425 74.4734 52.1425C74.3186 52.1425 74.1941 52.0107 74.1941 51.8562C74.1941 51.7017 74.3262 51.5774 74.4809 51.5774C74.6357 51.5774 74.7602 51.7093 74.7602 51.8637Z" fill="#47284F"/>
</g>
<path d="M83.6388 55.1222C84.9982 49.3281 81.3945 43.5311 75.5899 42.1743C69.7852 40.8174 63.9776 44.4145 62.6183 50.2086C61.2589 56.0027 64.8626 61.7997 70.6673 63.1565C76.4719 64.5134 82.2795 60.9163 83.6388 55.1222Z" stroke="#F7ABBA" stroke-width="0.622585" stroke-miterlimit="10"/>
<path d="M88.2146 44.1182L88.6637 45.0299L89.6715 45.1731L88.943 45.8851L89.1129 46.8873L88.2146 46.4126L87.3125 46.8873L87.4824 45.8851L86.7539 45.1731L87.7617 45.0299L88.2146 44.1182Z" fill="#0E65AF"/>
<path d="M92.6125 44.1182L93.0617 45.0299L94.0694 45.1731L93.341 45.8851L93.5108 46.8873L92.6125 46.4126L91.7105 46.8873L91.8803 45.8851L91.1519 45.1731L92.1596 45.0299L92.6125 44.1182Z" fill="#0E65AF"/>
<path d="M97.009 44.1182L97.4582 45.0299L98.4659 45.1731L97.7375 45.8851L97.9073 46.8873L97.009 46.4126L96.1069 46.8873L96.2806 45.8851L95.5483 45.1731L96.5561 45.0299L97.009 44.1182Z" fill="#0E65AF"/>
<path d="M101.406 44.1182L101.855 45.0299L102.863 45.1731L102.134 45.8851L102.304 46.8873L101.406 46.4126L100.504 46.8873L100.674 45.8851L99.9451 45.1731L100.953 45.0299L101.406 44.1182Z" fill="#0E65AF"/>
<path d="M105.803 44.1182L106.253 45.0299L107.26 45.1731L106.532 45.8851L106.702 46.8873L105.803 46.4126L104.901 46.8873L105.075 45.8851L104.343 45.1731L105.351 45.0299L105.803 44.1182Z" fill="#0E65AF"/>
<g opacity="0.15">
<path d="M87.241 49.2944H96.5976" stroke="#0E65AF" stroke-width="1.2393" stroke-linecap="round" stroke-linejoin="round"/>
<path d="M117.591 53.0315H124.705" stroke="#0E65AF" stroke-width="1.2393" stroke-linecap="round" stroke-linejoin="round"/>
<path d="M87.241 53.0315H114.507" stroke="#0E65AF" stroke-width="1.2393" stroke-linecap="round" stroke-linejoin="round"/>
<path d="M87.241 56.769H124.705" stroke="#0E65AF" stroke-width="1.2393" stroke-linecap="round" stroke-linejoin="round"/>
<path d="M112.797 60.5061H124.705" stroke="#0E65AF" stroke-width="1.2393" stroke-linecap="round" stroke-linejoin="round"/>
<path d="M87.241 60.5061H109.83" stroke="#0E65AF" stroke-width="1.2393" stroke-linecap="round" stroke-linejoin="round"/>
<path d="M99.6665 49.2944H124.706" stroke="#0E65AF" stroke-width="1.2393" stroke-linecap="round" stroke-linejoin="round"/>
</g>
<path d="M76.7184 87.4285C81.4522 85.4499 83.6829 80.0155 81.7007 75.2903C79.7186 70.565 74.2742 68.3384 69.5404 70.317C64.8065 72.2955 62.5758 77.73 64.558 82.4552C66.5401 87.1804 71.9845 89.407 76.7184 87.4285Z" fill="#F7ABBA"/>
<path d="M74.9594 79.0159C75.8728 78.4206 76.4805 77.3921 76.4805 76.2204C76.4805 74.3743 74.9821 72.8787 73.1326 72.8787C71.2832 72.8787 69.7848 74.3743 69.7848 76.2204C69.7848 77.3921 70.3924 78.4168 71.3058 79.0159C69.2262 79.5094 67.6711 81.3668 67.6711 83.5933V86.37C69.2073 87.4851 71.0907 88.152 73.1326 88.152C75.1745 88.152 77.0617 87.4851 78.5941 86.37V83.5933C78.5941 81.363 77.0429 79.5094 74.9594 79.0159Z" fill="white"/>
<path d="M88.2146 70.3286L88.6637 71.2403L89.6715 71.3835L88.943 72.0956L89.1129 73.0977L88.2146 72.623L87.3125 73.0977L87.4824 72.0956L86.7539 71.3835L87.7617 71.2403L88.2146 70.3286Z" fill="#0E65AF"/>
<path d="M92.6125 70.3286L93.0617 71.2403L94.0694 71.3835L93.341 72.0956L93.5108 73.0977L92.6125 72.623L91.7105 73.0977L91.8803 72.0956L91.1519 71.3835L92.1596 71.2403L92.6125 70.3286Z" fill="#0E65AF"/>
<path d="M97.009 70.3286L97.4582 71.2403L98.4659 71.3835L97.7375 72.0956L97.9073 73.0977L97.009 72.623L96.1069 73.0977L96.2806 72.0956L95.5483 71.3835L96.5561 71.2403L97.009 70.3286Z" fill="#0E65AF"/>
<path opacity="0.25" d="M101.406 70.3286L101.855 71.2403L102.863 71.3835L102.134 72.0956L102.304 73.0977L101.406 72.623L100.504 73.0977L100.674 72.0956L99.9451 71.3835L100.953 71.2403L101.406 70.3286Z" fill="#0E65AF"/>
<path opacity="0.25" d="M105.803 70.3286L106.253 71.2403L107.26 71.3835L106.532 72.0956L106.702 73.0977L105.803 72.623L104.901 73.0977L105.075 72.0956L104.343 71.3835L105.351 71.2403L105.803 70.3286Z" fill="#0E65AF"/>
<g opacity="0.15">
<path d="M87.241 75.5049H103.882" stroke="#0E65AF" stroke-width="1.2393" stroke-linecap="round" stroke-linejoin="round"/>
<path d="M97.0923 79.2419H124.705" stroke="#0E65AF" stroke-width="1.2393" stroke-linecap="round" stroke-linejoin="round"/>
<path d="M87.241 79.2419H94.0084" stroke="#0E65AF" stroke-width="1.2393" stroke-linecap="round" stroke-linejoin="round"/>
<path d="M87.241 82.9795H124.705" stroke="#0E65AF" stroke-width="1.2393" stroke-linecap="round" stroke-linejoin="round"/>
<path d="M117.032 86.7166H124.705" stroke="#0E65AF" stroke-width="1.2393" stroke-linecap="round" stroke-linejoin="round"/>
<path d="M87.241 86.7166H114.069" stroke="#0E65AF" stroke-width="1.2393" stroke-linecap="round" stroke-linejoin="round"/>
<path d="M106.951 75.5049H124.706" stroke="#0E65AF" stroke-width="1.2393" stroke-linecap="round" stroke-linejoin="round"/>
</g>
<path d="M81.7212 108.616C83.676 103.88 81.414 98.4581 76.6689 96.5069C71.9237 94.5556 66.4922 96.8134 64.5374 101.55C62.5825 106.287 64.8445 111.708 69.5897 113.659C74.3349 115.611 79.7663 113.353 81.7212 108.616Z" fill="#AED5F1"/>
<path d="M74.9606 105.227C75.874 104.631 76.4817 103.603 76.4817 102.431C76.4817 100.585 74.9833 99.0894 73.1338 99.0894C71.2844 99.0894 69.786 100.585 69.786 102.431C69.786 103.603 70.3937 104.628 71.3071 105.227C69.2274 105.72 67.6724 107.577 67.6724 109.804V112.581C69.2085 113.696 71.0919 114.363 73.1338 114.363C75.1758 114.363 77.0629 113.696 78.5953 112.581V109.804C78.5953 107.574 77.0441 105.72 74.9606 105.227Z" fill="white"/>
<path d="M88.2146 96.5386L88.6637 97.4503L89.6715 97.5935L88.943 98.3055L89.1129 99.3039L88.2146 98.833L87.3125 99.3039L87.4824 98.3055L86.7539 97.5935L87.7617 97.4503L88.2146 96.5386Z" fill="#0E65AF"/>
<path d="M92.6125 96.5386L93.0617 97.4503L94.0694 97.5935L93.341 98.3055L93.5108 99.3039L92.6125 98.833L91.7105 99.3039L91.8803 98.3055L91.1519 97.5935L92.1596 97.4503L92.6125 96.5386Z" fill="#0E65AF"/>
<path d="M97.009 96.5386L97.4582 97.4503L98.4659 97.5935L97.7375 98.3055L97.9073 99.3039L97.009 98.833L96.1069 99.3039L96.2806 98.3055L95.5483 97.5935L96.5561 97.4503L97.009 96.5386Z" fill="#0E65AF"/>
<path d="M101.406 96.5386L101.855 97.4503L102.863 97.5935L102.134 98.3055L102.304 99.3039L101.406 98.833L100.504 99.3039L100.674 98.3055L99.9451 97.5935L100.953 97.4503L101.406 96.5386Z" fill="#0E65AF"/>
<path opacity="0.25" d="M105.803 96.5386L106.253 97.4503L107.26 97.5935L106.532 98.3055L106.702 99.3039L105.803 98.833L104.901 99.3039L105.075 98.3055L104.343 97.5935L105.351 97.4503L105.803 96.5386Z" fill="#0E65AF"/>
<g opacity="0.15">
<path d="M87.241 101.715H96.5976" stroke="#0E65AF" stroke-width="1.2393" stroke-linecap="round" stroke-linejoin="round"/>
<path d="M104.403 105.452H124.706" stroke="#0E65AF" stroke-width="1.2393" stroke-linecap="round" stroke-linejoin="round"/>
<path d="M87.241 105.452H101.323" stroke="#0E65AF" stroke-width="1.2393" stroke-linecap="round" stroke-linejoin="round"/>
<path d="M87.241 109.19H124.705" stroke="#0E65AF" stroke-width="1.2393" stroke-linecap="round" stroke-linejoin="round"/>
<path d="M95.7632 112.927H124.705" stroke="#0E65AF" stroke-width="1.2393" stroke-linecap="round" stroke-linejoin="round"/>
<path d="M87.241 112.927H92.8006" stroke="#0E65AF" stroke-width="1.2393" stroke-linecap="round" stroke-linejoin="round"/>
<path d="M99.6665 101.715H124.706" stroke="#0E65AF" stroke-width="1.2393" stroke-linecap="round" stroke-linejoin="round"/>
</g>
<path d="M73.1294 140.573C78.2614 140.573 82.4218 136.42 82.4218 131.297C82.4218 126.175 78.2614 122.022 73.1294 122.022C67.9973 122.022 63.8369 126.175 63.8369 131.297C63.8369 136.42 67.9973 140.573 73.1294 140.573Z" fill="#AED5F1"/>
<path d="M74.9594 131.437C75.8728 130.841 76.4805 129.813 76.4805 128.641C76.4805 126.795 74.9821 125.299 73.1326 125.299C71.2832 125.299 69.7848 126.795 69.7848 128.641C69.7848 129.813 70.3924 130.837 71.3058 131.437C69.2262 131.93 67.6711 133.787 67.6711 136.014V138.791C69.2073 139.906 71.0907 140.573 73.1326 140.573C75.1745 140.573 77.0617 139.906 78.5941 138.791V136.014C78.5941 133.784 77.0429 131.93 74.9594 131.437Z" fill="white"/>
<path d="M88.2146 122.749L88.6637 123.661L89.6715 123.804L88.943 124.516L89.1129 125.514L88.2146 125.043L87.3125 125.514L87.4824 124.516L86.7539 123.804L87.7617 123.661L88.2146 122.749Z" fill="#0E65AF"/>
<path d="M92.6125 122.749L93.0617 123.661L94.0694 123.804L93.341 124.516L93.5108 125.514L92.6125 125.043L91.7105 125.514L91.8803 124.516L91.1519 123.804L92.1596 123.661L92.6125 122.749Z" fill="#0E65AF"/>
<path d="M97.009 122.749L97.4582 123.661L98.4659 123.804L97.7375 124.516L97.9073 125.514L97.009 125.043L96.1069 125.514L96.2806 124.516L95.5483 123.804L96.5561 123.661L97.009 122.749Z" fill="#0E65AF"/>
<path d="M101.406 122.749L101.855 123.661L102.863 123.804L102.134 124.516L102.304 125.514L101.406 125.043L100.504 125.514L100.674 124.516L99.9451 123.804L100.953 123.661L101.406 122.749Z" fill="#0E65AF"/>
<path d="M105.803 122.749L106.253 123.661L107.26 123.804L106.532 124.516L106.702 125.514L105.803 125.043L104.901 125.514L105.075 124.516L104.343 123.804L105.351 123.661L105.803 122.749Z" fill="#0E65AF"/>
<g opacity="0.15">
<path d="M124.705 139.137H115.349" stroke="#0E65AF" stroke-width="1.2393" stroke-linecap="round" stroke-linejoin="round"/>
<path d="M94.3556 135.4H87.241" stroke="#0E65AF" stroke-width="1.2393" stroke-linecap="round" stroke-linejoin="round"/>
<path d="M124.704 135.4H97.4348" stroke="#0E65AF" stroke-width="1.2393" stroke-linecap="round" stroke-linejoin="round"/>
<path d="M124.705 131.663H87.241" stroke="#0E65AF" stroke-width="1.2393" stroke-linecap="round" stroke-linejoin="round"/>
<path d="M99.149 127.926H87.241" stroke="#0E65AF" stroke-width="1.2393" stroke-linecap="round" stroke-linejoin="round"/>
<path d="M124.705 127.926H102.111" stroke="#0E65AF" stroke-width="1.2393" stroke-linecap="round" stroke-linejoin="round"/>
<path d="M112.28 139.137H87.241" stroke="#0E65AF" stroke-width="1.2393" stroke-linecap="round" stroke-linejoin="round"/>
</g>
<path d="M30.5401 69.8347H45.6375C46.5797 69.8347 47.3435 69.0723 47.3435 68.1318V58.31C47.3435 57.3696 46.5797 56.6071 45.6375 56.6071H30.5401C29.5979 56.6071 28.8341 57.3696 28.8341 58.31V68.1318C28.8341 69.0723 29.5979 69.8347 30.5401 69.8347Z" fill="#C5E9FB"/>
<path d="M45.2676 65.5512L49.7062 64.3003L45.7469 63.2681" fill="#C5E9FB"/>
<path opacity="0.25" d="M35.4198 63.1326H38.1826V62.4996H35.4198V63.1326Z" fill="#0E65AF"/>
<path opacity="0.25" d="M33.4685 62.1865H38.1826V61.5536H33.4685V62.1865Z" fill="#0E65AF"/>
<path opacity="0.25" d="M31.3021 65.9089H44.8521V65.1253H31.3021V65.9089Z" fill="#0E65AF"/>
<path opacity="0.25" d="M31.3021 67.0808H44.8521V66.2972H31.3021V67.0808Z" fill="#0E65AF"/>
<path opacity="0.25" d="M33.4685 61.241H38.1826V60.608H33.4685V61.241Z" fill="#0E65AF"/>
<path opacity="0.25" d="M36.454 60.2954H38.1826V59.6625H36.454V60.2954Z" fill="#0E65AF"/>
<path opacity="0.25" d="M39.3083 61.6404C39.3083 63.17 40.5501 64.4095 42.0825 64.4095C43.6149 64.4095 44.8566 63.17 44.8566 61.6404C44.8566 60.1108 43.6149 58.8713 42.0825 58.8713C40.5501 58.8713 39.3083 60.1108 39.3083 61.6404Z" fill="#0E65AF"/>
<path opacity="0.19" d="M41.5349 61.6818C41.2631 61.5047 41.082 61.1958 41.082 60.8492C41.082 60.2992 41.5273 59.8508 42.0822 59.8508C42.637 59.8508 43.0824 60.2954 43.0824 60.8492C43.0824 61.1996 42.9012 61.5047 42.6295 61.6818C43.2522 61.8288 43.7127 62.3826 43.7127 63.0494V63.8783C43.256 64.2098 42.6936 64.4095 42.0822 64.4095C41.4707 64.4095 40.9121 64.2098 40.4517 63.8783V63.0494C40.4517 62.3863 40.9159 61.8288 41.5349 61.6818Z" fill="#0E65AF"/>
<path d="M38.1059 51.3872C37.6568 52.5137 36.3773 53.06 35.2525 52.6116C34.124 52.1633 33.5767 50.8861 34.0259 49.7634C34.475 48.637 35.7545 48.0907 36.8793 48.539C38.0078 48.9873 38.5551 50.2645 38.1059 51.3872Z" fill="#F37C90"/>
<path d="M35.1277 50.3135L35.6184 51.4136L37.2715 50.3926" stroke="white" stroke-width="0.622585" stroke-linecap="round" stroke-linejoin="round"/>
<path d="M146.088 51.8431C146.567 52.9545 146.05 54.2468 144.933 54.7215C143.816 55.1999 142.525 54.6838 142.049 53.5686C141.57 52.4572 142.087 51.165 143.204 50.6903C144.321 50.2118 145.612 50.728 146.088 51.8431Z" fill="#F37C90"/>
<path d="M143.219 53.1806L144.348 53.6101L144.793 51.7263" stroke="white" stroke-width="0.622585" stroke-linecap="round" stroke-linejoin="round"/>
<g style="mix-blend-mode:multiply" opacity="0.45">
<path d="M141.45 115.515C141.522 115.481 141.593 115.447 141.661 115.417L141.45 115.515ZM141.065 115.688L139.944 116.129C139.989 116.114 140.031 116.095 140.076 116.08L141.065 115.688ZM139.374 116.333L138.906 116.491L142.854 114.664C142.854 114.664 142.865 114.652 142.873 114.645L139.374 116.333ZM115.988 98.0114C117.23 96.237 119.091 95.0502 121.227 94.6735C121.706 94.5868 122.186 94.5454 122.665 94.5454C124.314 94.5454 125.918 95.0464 127.296 96.0071C129.074 97.2466 130.263 99.104 130.64 101.236C131.018 103.369 130.542 105.52 129.3 107.294C128.058 109.069 126.198 110.256 124.061 110.632C121.925 111.009 119.77 110.534 117.992 109.295C114.32 106.737 113.422 101.673 115.984 98.0077L115.988 98.0114ZM136.558 117.203L140.676 120.616L140.691 120.65L136.558 117.203ZM141.197 121.841L141.254 121.973L141.197 121.841ZM142.378 126.637L135.683 115.997C135.686 115.779 135.592 115.541 135.449 115.383C135.275 115.191 135.041 115.071 134.799 114.98C134.765 114.969 134.732 114.958 134.694 114.958L130.331 109.694C130.64 109.355 130.938 109.005 131.206 108.621C132.803 106.338 133.414 103.572 132.927 100.83C132.44 98.0868 130.912 95.702 128.625 94.1083C126.337 92.5147 123.567 91.9044 120.819 92.3904C118.072 92.8764 115.682 94.4022 114.086 96.6853C110.791 101.398 111.946 107.909 116.667 111.198C118.441 112.433 120.506 113.078 122.623 113.078C123.235 113.078 123.854 113.025 124.469 112.916C125.971 112.648 127.364 112.06 128.583 111.22L132.471 115.907C132.459 116.065 132.478 116.223 132.512 116.378C132.618 116.819 132.893 117.256 133.327 117.384C133.441 117.418 133.573 117.436 133.637 117.538C133.671 117.595 133.675 117.666 133.686 117.73C133.746 118.062 134.09 118.314 134.426 118.269L137.313 121.746C137.313 121.927 137.385 122.101 137.532 122.202C137.615 122.259 137.728 122.308 137.74 122.41C137.743 122.462 137.721 122.507 137.706 122.556C137.66 122.707 137.713 122.884 137.834 122.982C137.959 123.08 138.14 123.095 138.279 123.016C138.279 123.34 138.57 123.638 138.895 123.653L141.865 127.236C142.095 127.511 142.427 127.654 142.76 127.654C142.797 127.654 142.835 127.646 142.869 127.646C143.092 127.684 144.115 127.337 143.862 126.927C143.748 126.746 143.982 125.812 143.816 126.829" fill="#5CB5E2"/>
</g>
<path d="M143.151 102.8C141.966 104.069 141.128 112.218 141.098 112.52C141.068 112.821 135.097 116.174 135.097 116.174L135.938 117.135C135.938 117.135 142.302 115.534 143.446 114.155C144.416 112.983 146.661 103.406 146.661 103.406C146.661 103.406 145.121 100.69 143.155 102.8H143.151Z" fill="#5BC6F2"/>
<path opacity="0.35" d="M152.421 158.92C162.243 158.92 170.205 158.375 170.205 157.703C170.205 157.031 162.243 156.486 152.421 156.486C142.598 156.486 134.636 157.031 134.636 157.703C134.636 158.375 142.598 158.92 152.421 158.92Z" fill="#E9E8EE"/>
<path d="M161.392 151.234C161.392 151.234 161.879 152.172 162.124 152.466C162.37 152.764 163.434 152.093 163.442 151.848C163.449 151.607 162.498 150.134 162.498 150.134" fill="#FBBD9E"/>
<path d="M163.91 151.939C164.14 152.263 164.517 152.911 164.517 152.911L163.578 153.766L163.332 153.66C163.332 153.66 163.177 154.082 162.894 154.354C162.683 154.553 162.192 154.892 161.924 155.017C160.988 155.45 160.203 155.518 160.098 155.405C159.652 154.938 160.886 154.346 161.12 154.195C161.785 153.755 161.97 153.005 161.898 152.579C161.849 152.27 161.754 152.244 161.924 152.199C161.924 152.199 162.068 152.142 162.253 152.233C162.536 152.368 162.883 152.357 163.113 152.142C163.245 152.018 163.359 151.863 163.389 151.686C163.389 151.686 163.683 151.618 163.913 151.946L163.91 151.939Z" fill="#2C2F76"/>
<path d="M143.894 154.444C143.894 154.444 143.66 155.021 143.691 155.401C143.721 155.782 144.985 155.808 145.132 155.612C145.28 155.416 145.351 153.672 145.351 153.672" fill="#FBBD9E"/>
<path d="M145.461 155.947C145.461 156.343 145.347 156.987 145.347 156.987H143.891L143.819 156.754C143.819 156.754 143.347 156.987 142.977 156.987H141.747C140.848 156.987 140.335 156.878 140.312 156.727C140.218 156.094 141.294 156.125 141.573 156.125C142.377 156.125 143.245 155.763 143.438 155.375C143.574 155.092 143.513 155.021 143.679 155.073C143.679 155.073 143.83 155.104 143.928 155.281C144.083 155.548 144.374 155.729 144.687 155.676C144.868 155.646 145.049 155.578 145.178 155.45C145.178 155.45 145.461 155.556 145.461 155.951V155.947Z" fill="#2C2F76"/>
<path d="M151.315 128.049C151.307 128.102 150.126 126.753 150.115 126.81C149.647 129.172 147.461 137.072 146.737 139.144C146.631 139.438 146.068 140.064 145.604 140.18C144.54 140.459 142.838 140.094 142.702 138.059C142.683 137.833 142.736 137.588 142.709 137.325C142.404 134.19 145.408 120.364 145.487 119.482C145.559 118.6 147.295 119.237 147.782 119.075C150.209 118.273 151.949 124.745 151.315 128.049Z" fill="#204D77"/>
<path d="M146.872 140.264C146.378 138.79 147.129 137.069 147.129 137.069C147.129 137.069 142.939 133.855 142.728 135.814C142.705 135.969 142.551 137.299 142.551 138.048C142.551 140.731 143.487 149.23 143.419 154.418V154.757C143.419 154.757 144.117 154.896 145.347 154.885C145.404 154.885 145.461 154.885 145.521 154.881C145.872 151.649 146.627 147.256 146.989 142.833C147.076 141.748 146.959 140.505 146.876 140.26L146.872 140.264Z" fill="#204D77"/>
<path d="M157.565 139.6C156.728 138.561 155.841 138.093 155.58 137.302C154.972 135.46 155.135 127.993 155.078 125.921C155.252 125.495 156.867 121.257 153.591 118.133C153.591 118.133 150.647 119.395 148.288 119.546C146.431 119.667 145.488 119.482 145.488 119.482C145.488 119.482 147.243 122.123 147.345 123.295C147.518 125.284 151.243 137.295 151.527 137.954C152.172 139.453 152.889 140.045 153.123 140.35C154.772 142.494 158.637 147.003 161.57 151.325L161.766 151.603C161.766 151.603 162.355 151.404 163.45 150.65C161.872 147.776 160.219 142.897 157.562 139.6H157.565Z" fill="#204D77"/>
<path d="M143.151 102.8C143.74 102.125 146.265 101.086 148.76 101.165C150.477 101.217 155.942 101.779 156.467 102.928C156.735 103.516 156.709 109.084 156.316 111.156C156.022 112.716 155.131 116.717 155.131 117.651C155.131 118.585 155.633 118.981 155.399 119.252C154.874 119.859 150.96 120.13 149.277 120.13C147.779 120.13 145.231 119.731 145.103 119.252C144.91 118.54 145.393 118.567 145.461 117.824C145.529 117.082 145.88 112.166 145.442 111.454C144.748 110.32 143.691 107.11 143.638 106.255C143.585 105.399 142.566 103.478 143.155 102.804L143.151 102.8Z" fill="#5BC6F2"/>
<path d="M147.291 99.0472C147.291 99.0472 147.276 101.119 147.19 101.202C147.106 101.285 146.695 101.481 146.695 101.481C146.695 101.481 146.989 103.282 147.439 103.15C147.892 103.018 150.877 101.511 150.877 101.511C150.877 101.511 150.454 101.338 150.454 101.172C150.454 101.006 150.854 97.7437 150.854 97.7437" fill="#FBBD9E"/>
<path d="M148.096 92.2356C147.733 91.9643 147.216 91.953 146.809 92.1489C146.401 92.3448 146.103 92.7254 145.929 93.1435C145.763 93.5467 145.714 94.0289 145.929 94.4094C145.627 94.5074 145.442 94.8351 145.442 95.1478C145.442 95.4907 145.646 95.8222 145.827 96.0972C146.001 96.3647 146.378 96.523 146.688 96.4551C146.911 96.4062 147.099 96.2555 147.235 96.0709C147.371 95.89 147.462 95.6753 147.545 95.4643C147.93 94.481 148.19 93.4562 148.379 92.4164" fill="#1F1953"/>
<path d="M149.364 91.5198C148.93 91.6366 147.783 91.403 147.466 91.8739C147.149 92.3486 146.873 93.4939 146.752 93.8104C146.514 94.4396 146.363 95.1102 146.19 95.7582C145.967 96.6021 145.39 98.1957 146.22 98.9002C146.458 99.1037 146.771 99.1263 147.066 99.179C147.458 99.2506 147.847 99.3297 148.239 99.4013C148.847 99.5106 149.519 99.6387 150.123 99.4428C150.93 99.1828 151.372 98.0752 151.58 97.3254L152.765 93.023L149.364 91.5235V91.5198Z" fill="#FBBD9E"/>
<path d="M151.146 97.7549C151.146 97.7549 151.123 97.9546 151.259 98.094C151.38 98.2146 151.595 98.1694 151.738 98.1053C152.146 97.9207 152.387 97.4761 152.418 97.0429C152.452 96.5343 152.127 96.0633 151.682 96.2479C151.421 96.3534 151.289 96.6774 151.327 96.9562" fill="#FBBD9E"/>
<path d="M152.236 95.3967C152.096 95.8224 151.73 96.7944 151.341 96.7002C150.953 96.606 151.5 95.084 151.836 94.4736C151.345 94.4736 150.741 94.3983 150.564 93.9424C150.526 93.8407 150.492 93.7089 150.387 93.6825C150.3 93.6636 150.22 93.7352 150.145 93.7842C149.802 94.0065 149.334 93.788 149.058 93.4866C148.994 93.4188 148.922 93.3359 148.828 93.3434C148.771 93.3472 148.722 93.3849 148.673 93.4188C148.107 93.8181 146.608 93.7993 146.612 93.0948C146.118 93.3472 145.797 92.7369 145.827 92.3187C145.857 91.9005 146.171 91.2035 146.85 91.2223C146.816 90.71 147.22 90.3859 147.628 90.0732C148.035 89.7605 148.56 89.6212 149.073 89.5986C149.885 89.5609 150.813 89.8962 151.089 90.661C151.107 90.7175 151.13 90.7778 151.179 90.8079C151.236 90.8418 151.308 90.823 151.368 90.8079C151.987 90.6421 152.696 90.7401 153.172 91.1658C153.648 91.5915 153.806 92.3714 153.44 92.8951C153.916 93.0081 154.172 93.5732 154.097 94.0555C154.021 94.5377 153.704 94.9484 153.376 95.3063C153.893 95.472 154.097 96.1765 153.836 96.6512C153.576 97.1259 152.904 97.3821 152.368 97.303C152.493 96.8132 152.278 96.2519 151.806 96.1652" fill="#0A1B2C"/>
<path d="M147.329 103.644C147.329 103.644 147.163 111.273 146.853 115.91L147.978 117.459L148.752 115.522C148.752 115.522 149.076 109.928 148.019 103.696L147.329 103.644Z" fill="#204D77"/>
<path d="M147.073 102.973L147.099 103.079C147.148 103.278 147.228 103.467 147.333 103.644L148.024 103.697C148.024 103.697 148.492 103.452 148.556 103.188C148.616 102.924 147.786 102.491 147.786 102.491L147.684 102.532C147.45 102.623 147.246 102.774 147.084 102.962L147.077 102.973H147.073Z" fill="#204D77"/>
<path d="M150.535 100.453C150.535 100.453 151.131 100.878 151.475 101.398C151.12 102.208 150.067 103.583 149.183 104.239C148.772 103.135 147.783 102.491 147.783 102.491C147.783 102.491 150.286 101.975 150.535 100.449V100.453Z" fill="#EAEAEA"/>
<path d="M147.783 102.495C147.783 102.495 146.923 102.834 146.413 103.795C146.413 103.795 146.247 102.495 146.598 101.38C146.598 101.38 147.062 100.604 147.258 100.589C147.179 101.508 147.783 102.495 147.783 102.495Z" fill="#EAEAEA"/>
<path d="M146.872 140.264C146.755 139.917 146.71 139.552 146.706 139.201C146.714 139.182 146.725 139.164 146.733 139.148C147.219 137.751 148.367 133.723 149.209 130.513L147.903 125.868C147.903 125.868 147.11 135.325 146.85 136.003C146.589 136.681 145.781 138.866 145.861 139.337C145.94 139.808 146.449 140.671 146.37 141.417C146.291 142.159 146.302 148.842 146.302 148.876C146.559 146.943 146.816 144.894 146.982 142.837C147.068 141.752 146.951 140.509 146.868 140.264H146.872Z" fill="#133D5E"/>
<path d="M130.516 107.487C127.534 111.748 121.657 112.788 117.392 109.811C113.123 106.835 112.082 100.969 115.064 96.7118C118.045 92.4508 123.922 91.411 128.187 94.3873C132.456 97.3636 133.497 103.23 130.516 107.487V107.487Z" stroke="#2C2F76" stroke-width="3.10118" stroke-miterlimit="10"/>
<path d="M129.179 109.389L143.216 126.313" stroke="#2C2F76" stroke-width="3.10118" stroke-linecap="round" stroke-linejoin="round"/>
<path d="M142.204 120.043C142.204 120.043 141.43 120.285 141.03 120.401C140.77 120.477 139.532 120.345 138.799 120.511C138.448 120.59 138.082 120.714 137.856 120.993C137.629 121.272 137.614 121.75 137.912 121.954C137.995 122.01 138.112 122.063 138.124 122.165C138.128 122.217 138.105 122.266 138.086 122.315C138.037 122.47 138.094 122.647 138.218 122.748C138.343 122.85 138.531 122.862 138.671 122.782C138.671 123.114 138.965 123.415 139.298 123.43C139.286 123.25 139.343 123.05 139.494 122.944C139.641 122.846 139.83 122.858 140.007 122.839C140.317 122.809 140.615 122.666 140.834 122.447C140.992 122.289 141.105 122.097 141.249 121.931C141.543 121.584 141.955 121.339 142.4 121.242" fill="#FBBD9E"/>
<g style="mix-blend-mode:multiply" opacity="0.45">
<path d="M156.468 102.928C156.445 102.879 156.411 102.834 156.373 102.785L152.769 106.303C151.912 108.587 150.198 114.592 150.198 114.592C150.198 114.592 148.576 115.353 147.489 115.914C147.213 116.057 146.432 116.581 145.511 117.218C145.492 117.493 145.473 117.708 145.465 117.821C145.401 118.567 145.296 118.559 145.488 119.271C145.488 119.742 145.307 120.45 145.182 121.151C147.892 120.462 153.478 118.71 153.69 118.597C154.007 118.423 155.652 111.819 156.604 107.807C156.751 105.362 156.66 103.357 156.464 102.928H156.468Z" fill="#5CB5E2"/>
</g>
<path d="M152.746 105.919C152.414 106.872 150.644 115.259 150.644 115.259C150.644 115.259 148.911 115.692 147.824 116.257C146.979 116.694 141.098 120.341 141.098 120.341L141.683 121.716C141.683 121.716 152.153 118.013 152.614 117.764C153.074 117.515 157.275 106.925 157.275 105.038C157.275 103.926 156.373 102.785 156.373 102.785" fill="#5BC6F2"/>
<path d="M134.753 117.956C134.414 117.998 134.063 117.745 134.002 117.406C133.991 117.338 133.987 117.267 133.949 117.21C133.885 117.108 133.749 117.09 133.636 117.056C133.194 116.928 132.915 116.479 132.806 116.035C132.749 115.797 132.73 115.545 132.806 115.311C132.877 115.078 133.055 114.871 133.293 114.803C133.338 114.788 133.391 114.784 133.436 114.803C133.481 114.822 133.515 114.859 133.542 114.897C133.678 115.078 133.779 115.281 133.844 115.5C133.889 115.658 133.923 115.835 134.055 115.933C134.146 115.997 134.259 116.012 134.361 116.061C134.561 116.159 134.659 116.381 134.734 116.592C134.848 116.909 134.697 117.636 134.761 117.967" fill="#FBBD9E"/>
<path d="M136.018 115.782C136.078 115.53 135.969 115.217 135.791 115.025C135.618 114.829 135.376 114.705 135.131 114.614C135.067 114.592 134.976 114.573 134.938 114.633C134.912 114.675 134.927 114.731 134.953 114.773C135.048 114.931 135.244 115.006 135.342 115.157C135.38 115.213 135.403 115.281 135.433 115.342C135.542 115.568 135.769 115.737 136.018 115.782Z" fill="#FBBD9E"/>
<g style="mix-blend-mode:multiply" opacity="0.45">
<path d="M144.891 110.225C144.891 110.225 143.899 107.773 143.718 106.759C143.242 109.167 143.4 113.379 143 113.737C142.6 114.095 138.603 116.37 138.603 116.37C140.49 115.779 142.797 114.931 143.442 114.151C143.808 113.71 144.352 112.083 144.888 110.225H144.891Z" fill="#5CB5E2"/>
</g>
<path d="M147.289 99.2246C147.289 99.2246 148.979 99.5938 149.278 99.5448C149.576 99.4959 148.628 100.057 148.451 100.08C148.274 100.102 147.289 99.9668 147.289 99.9668V99.2284V99.2246Z" fill="#F2A182"/>
</g>
<defs>
<clipPath id="clip0_2584_116298">
<rect width="187" height="158.833" fill="white" transform="translate(0 0.0837402)"/>
</clipPath>
</defs>
</svg>
